HIERARCHY
ROOT hip
{
	OFFSET 0.000000 0.000000 0.000000
	CHANNELS 6 Xposition Yposition Zposition Xrotation Zrotation Yrotation 
	JOINT abdomen
	{
		OFFSET 0.000000 3.422050 0.000000
		CHANNELS 3 Xrotation Zrotation Yrotation 
		JOINT chest
		{
			OFFSET 0.000000 8.486693 -0.684411
			CHANNELS 3 Xrotation Zrotation Yrotation 
			JOINT neck
			{
				OFFSET 0.000000 10.266162 -0.273764
				CHANNELS 3 Xrotation Zrotation Yrotation 
				JOINT head
				{
					OFFSET 0.000000 3.148285 0.000000
					CHANNELS 3 Xrotation Zrotation Yrotation 
					End Site
					{
						OFFSET 0.000000 3.148289 0.000000
					}
				}
			}
			JOINT lCollar
			{
				OFFSET 3.422053 6.707223 -0.821293
				CHANNELS 3 Yrotation Zrotation Xrotation 
				JOINT lShldr
				{
					OFFSET 3.285171 0.000000 0.000000
					CHANNELS 3 Zrotation Yrotation Xrotation 
					JOINT lForeArm
					{
						OFFSET 10.129278 0.000000 0.000000
						CHANNELS 3 Yrotation Zrotation Xrotation 
						JOINT lHand
						{
							OFFSET 8.486692 0.000000 0.000000
							CHANNELS 3 Zrotation Yrotation Xrotation 
							End Site
							{
								OFFSET 4.106464 0.000000 0.000000
							}
						}
					}
				}
			}
			JOINT rCollar
			{
				OFFSET -3.558935 6.707223 -0.821293
				CHANNELS 3 Yrotation Zrotation Xrotation 
				JOINT rShldr
				{
					OFFSET -3.148289 0.000000 0.000000
					CHANNELS 3 Zrotation Yrotation Xrotation 
					JOINT rForeArm
					{
						OFFSET -10.266159 0.000000 0.000000
						CHANNELS 3 Yrotation Zrotation Xrotation 
						JOINT rHand
						{
							OFFSET -8.349810 0.000000 0.000000
							CHANNELS 3 Zrotation Yrotation Xrotation 
							End Site
							{
								OFFSET -4.106464 0.000000 0.000000
							}
						}
					}
				}
			}
		}
	}
	JOINT lThigh
	{
		OFFSET 5.338403 -1.642589 1.368821
		CHANNELS 3 Xrotation Zrotation Yrotation 
		JOINT lShin
		{
			OFFSET -2.053232 -20.121670 0.000000
			CHANNELS 3 Xrotation Zrotation Yrotation 
			JOINT lFoot
			{
				OFFSET 0.000000 -19.300380 -1.231939
				CHANNELS 3 Xrotation Yrotation Zrotation 
				End Site
				{
					OFFSET 0.000000 -2.463878 4.653993
				}
			}
		}
	}
	JOINT rThigh
	{
		OFFSET -5.338403 -1.642589 1.368821
		CHANNELS 3 Xrotation Zrotation Yrotation 
		JOINT rShin
		{
			OFFSET 2.053232 -20.121670 0.000000
			CHANNELS 3 Xrotation Zrotation Yrotation 
			JOINT rFoot
			{
				OFFSET 0.000000 -19.300380 -1.231939
				CHANNELS 3 Xrotation Yrotation Zrotation 
				End Site
				{
					OFFSET 0.000000 -2.463878 4.653993
				}
			}
		}
	}
}
MOTION
Frames: 13
Frame Time: 0.055442
0.000000 42.891857 0.916145 -7.380031 -0.005646 -170.058044 14.417860 -0.162060 -0.139027 41.078453 0.517236 -0.549951 -11.051703 -4.240168 -6.933180 -4.622584 -4.186067 -0.347038 -19.105093 -21.971556 -54.738594 -21.248560 20.020924 4.536677 -1.550073 -23.097906 -19.426069 -12.873327 -35.250946 -5.191743 7.033236 -0.484115 -53.040352 16.134178 -28.695581 -1.822458 56.099102 70.626198 -60.041489 3.634530 29.752722 -1.851084 38.858791 31.112587 95.404266 68.939957 39.655746 -34.689018 34.397530 24.960304 -0.685531 -124.957191 -50.051735 8.096390 117.410240 -15.824684 -0.427497 -22.013872 5.086537 0.470083 
0.000000 42.970104 0.916145 -8.261825 -0.005906 -170.054825 14.192738 -0.162028 -0.139023 40.702988 0.517224 -0.549938 -11.786661 -4.198385 -6.889746 -5.572213 -4.143300 -0.324332 -19.244429 -22.983295 -54.929413 -21.027258 19.295675 4.463171 -1.478669 -21.866158 -19.443302 -13.172528 -34.928860 -5.529178 7.028823 -0.208095 -52.865417 16.134178 -28.695581 -1.822458 55.629505 70.522667 -59.606148 4.062743 30.233532 -1.453574 37.860603 31.008240 95.395256 68.939957 39.655746 -34.689018 34.484325 25.033146 -0.557675 -125.539230 -49.621693 8.165809 117.410240 -15.824684 -0.427497 -22.017599 4.708483 0.711917 
0.000000 43.048351 0.916145 -9.143410 -0.006115 -170.051636 13.967623 -0.161996 -0.139018 40.327538 0.517211 -0.549925 -12.521612 -4.156047 -6.846855 -6.521908 -4.100157 -0.302339 -19.388466 -23.994261 -55.124310 -20.805971 18.570827 4.387042 -1.407496 -20.635000 -19.462015 -13.472833 -34.608284 -5.867296 7.023567 0.067900 -52.690479 16.134178 -28.695581 -1.822458 55.164658 70.417953 -59.175564 4.496883 30.711666 -1.049983 36.863819 30.903795 95.388367 68.939957 39.655746 -34.689018 34.570984 25.106155 -0.429867 -126.115318 -49.191265 8.227934 117.410233 -15.824683 -0.427497 -22.019722 4.330441 0.953585 
0.000000 43.126602 0.916145 -10.024680 -0.006276 -170.048416 13.742508 -0.161964 -0.139014 39.952106 0.517199 -0.549912 -13.256491 -4.113164 -6.804513 -7.471531 -4.056658 -0.281066 -19.537394 -25.004280 -55.323498 -20.584650 17.846458 4.308310 -1.336502 -19.404720 -19.482191 -13.774208 -34.289211 -6.206084 7.017467 0.343866 -52.515507 16.134178 -28.695581 -1.822458 54.704597 70.312111 -58.749779 4.937041 31.187050 -0.640225 35.868580 30.799314 95.383583 68.939957 39.655746 -34.689018 34.657505 25.179335 -0.302105 -126.685623 -48.760555 8.282947 117.410233 -15.824683 -0.427497 -22.020247 3.952427 1.195102 
0.000000 43.204849 0.916145 -10.905535 -0.006388 -170.045227 13.517405 -0.161932 -0.139010 39.576717 0.517187 -0.549899 -13.991238 -4.069746 -6.762731 -8.420963 -4.012819 -0.260523 -19.691378 -26.013163 -55.527145 -20.363249 17.122644 4.226994 -1.265634 -18.175606 -19.503805 -14.076643 -33.971706 -6.545531 7.010526 0.619793 -52.340519 16.134180 -28.695585 -1.822459 54.249241 70.205147 -58.328697 5.383302 31.659584 -0.224217 34.875042 30.694836 95.380943 68.939957 39.655746 -34.689018 34.743904 25.252695 -0.174394 -127.250320 -48.329632 8.331023 117.410233 -15.824683 -0.427497 -22.019175 3.574462 1.436481 
0.000000 43.283096 0.916145 -11.785869 -0.006449 -170.042007 13.292307 -0.161900 -0.139006 39.201363 0.517175 -0.549885 -14.725787 -4.025803 -6.721517 -9.370064 -3.968657 -0.240717 -19.850616 -27.020731 -55.735466 -20.141716 16.399464 4.143110 -1.194843 -16.947941 -19.526833 -14.380116 -33.655796 -6.885620 7.002742 0.895675 -52.165489 16.134178 -28.695581 -1.822458 53.798553 70.096992 -57.912300 5.835752 32.129185 0.198128 33.883354 30.590429 95.380424 68.939957 39.655746 -34.689018 34.830166 25.326220 -0.046731 -127.809532 -47.898552 8.372348 117.410240 -15.824684 -0.427497 -22.016508 3.196563 1.677736 
0.000000 43.361343 0.916145 -12.665578 -0.006462 -170.038818 13.067219 -0.161868 -0.139002 38.826069 0.517163 -0.549872 -15.460093 -3.981350 -6.680888 -10.318707 -3.924193 -0.221656 -20.015308 -28.026794 -55.948669 -19.920006 15.676989 4.056674 -1.124081 -15.722003 -19.551260 -14.684615 -33.341507 -7.226345 6.994118 1.171506 -51.990448 16.134178 -28.695581 -1.822458 53.352562 69.987808 -57.500618 6.294478 32.595737 0.626897 32.893604 30.486109 95.381958 68.939957 39.655746 -34.689018 34.916298 25.399918 0.080885 -128.363449 -47.467419 8.407097 117.410233 -15.824683 -0.427497 -22.012249 2.818746 1.918880 
0.000000 43.439590 0.916145 -13.544559 -0.006426 -170.035614 12.842148 -0.161837 -0.138998 38.450825 0.517151 -0.549859 -16.194078 -3.936395 -6.640846 -11.266768 -3.879446 -0.203347 -20.185663 -29.031174 -56.166965 -19.698069 14.955290 3.967699 -1.053301 -14.498075 -19.577063 -14.990106 -33.028877 -7.567680 6.984648 1.447277 -51.815346 16.134178 -28.695581 -1.822458 52.911190 69.877510 -57.093563 6.759563 33.059155 1.062170 31.905966 30.381943 95.385597 68.939957 39.655746 -34.689018 35.002304 25.473787 0.208447 -128.912247 -47.036301 8.435430 117.410233 -15.824683 -0.427497 -22.006407 2.441033 2.159929 
0.000000 43.517838 0.916145 -14.422713 -0.006341 -170.032425 12.617085 -0.161805 -0.138994 38.075630 0.517139 -0.549845 -16.927694 -3.890951 -6.601403 -12.214113 -3.834434 -0.185794 -20.361908 -30.033680 -56.390606 -19.475872 14.234451 3.876199 -0.982459 -13.276433 -19.604233 -15.296575 -32.717930 -7.909620 6.974337 1.722983 -51.640198 16.134178 -28.695581 -1.822458 52.474461 69.766159 -56.691151 7.231095 33.519348 1.504035 30.920567 30.277973 95.391304 68.939957 39.655746 -34.689018 35.088173 25.547827 0.335961 -129.456024 -46.605263 8.457521 117.410233 -15.824683 -0.427497 -21.998970 2.063439 2.400894 
0.000000 43.596085 0.916145 -15.299934 -0.006207 -170.029236 12.392039 -0.161773 -0.138991 37.700523 0.517127 -0.549832 -17.660879 -3.845030 -6.562568 -13.160617 -3.789176 -0.169005 -20.544270 -31.034115 -56.619812 -19.253351 13.514544 3.782185 -0.911510 -12.057355 -19.632763 -15.604003 -32.408714 -8.252146 6.963182 1.998615 -51.465008 16.134180 -28.695585 -1.822459 52.042305 69.653778 -56.293339 7.709154 33.976212 1.952570 29.937529 30.174240 95.399048 68.939957 39.655746 -34.689018 35.173904 25.622032 0.463424 -129.994965 -46.174381 8.473521 117.410240 -15.824684 -0.427497 -21.989956 1.685986 2.641790 
0.000000 43.674335 0.916145 -16.176121 -0.006024 -170.026047 12.167009 -0.161741 -0.138987 37.325497 0.517115 -0.549818 -18.393570 -3.798643 -6.524349 -14.106153 -3.743689 -0.152982 -20.733019 -32.032322 -56.854889 -19.030478 12.795645 3.685669 -0.840412 -10.841105 -19.662630 -15.912364 -32.101250 -8.595243 6.951183 2.274166 -51.289761 16.134180 -28.695585 -1.822459 51.614681 69.540344 -55.900055 8.193827 34.429649 2.407861 28.956991 30.070803 95.408836 68.939957 39.655746 -34.689018 35.259495 25.696405 0.590835 -130.529144 -45.743717 8.483579 117.410233 -15.824683 -0.427497 -21.979359 1.308688 2.882629 
0.000000 43.752583 0.916145 -17.051182 -0.005793 -170.022873 11.942003 -0.161709 -0.138984 36.950550 0.517104 -0.549805 -19.125713 -3.751804 -6.486753 -15.050593 -3.697996 -0.137731 -20.928404 -33.028099 -57.096062 -18.807199 12.077819 3.586659 -0.769124 -9.627948 -19.693836 -16.221640 -31.795567 -8.938894 6.938341 2.549631 -51.114441 16.134178 -28.695581 -1.822458 51.191582 69.425903 -55.511311 8.685192 34.879559 2.869986 27.979074 29.967691 95.420631 68.939957 39.655746 -34.689018 35.344963 25.770948 0.718194 -131.058731 -45.313332 8.487850 117.410233 -15.824683 -0.427497 -21.967180 0.931564 3.123427 
0.000000 43.830830 0.916145 -17.925005 -0.005514 -170.019714 11.717016 -0.161677 -0.138981 36.575706 0.517093 -0.549791 -19.857244 -3.704524 -6.449790 -15.993814 -3.652115 -0.123255 -21.130709 -34.021252 -57.343647 -18.583473 11.361146 3.485164 -0.697603 -8.418152 -19.726370 -16.531805 -31.491697 -9.283087 6.924654 2.825001 -50.939060 16.134178 -28.695581 -1.822458 50.772953 69.310486 -55.127052 9.183331 35.325840 3.339025 27.003901 29.864952 95.434410 68.939957 39.655746 -34.689018 35.430290 25.845655 0.845501 -131.583878 -44.883316 8.486478 117.410233 -15.824683 -0.427497 -21.953423 0.554634 3.364196 
